<svg xmlns="http://www.w3.org/2000/svg" width="1920" height="900" viewBox="0 0 1920 900">
  <defs>
    <linearGradient id="h1" x1="0" y1="0" x2="1" y2="1"><stop offset="0%" stop-color="#A74B1F"/><stop offset="40%" stop-color="#C05E2E"/><stop offset="100%" stop-color="#8B5E3C"/></linearGradient>
    <linearGradient id="h1o" x1="0" y1="0" x2="1" y2="0"><stop offset="0%" stop-color="#8B5E3C"/><stop offset="60%" stop-color="#8B5E3C" stop-opacity="0"/></linearGradient>
    <pattern id="h1dots" width="40" height="40" patternUnits="userSpaceOnUse"><circle cx="20" cy="20" r="1" fill="#EADBC8" opacity="0.08"/></pattern>
  </defs>
  <rect width="1920" height="900" fill="url(#h1)"/>
  <rect width="1920" height="900" fill="url(#h1dots)"/>
  <circle cx="1600" cy="250" r="320" fill="#EADBC8" opacity="0.1"/>
  <circle cx="1300" cy="680" r="220" fill="#F8F4EE" opacity="0.06"/>
  <circle cx="1750" cy="480" r="160" fill="#D97745" opacity="0.15"/>
  <circle cx="150" cy="150" r="100" fill="#EADBC8" opacity="0.08"/>
  <circle cx="250" cy="750" r="80" fill="#F8F4EE" opacity="0.05"/>
  <path d="M0 550 Q240 480 480 550 T960 530 T1440 560 T1920 530" stroke="#EADBC8" stroke-width="1.5" fill="none" opacity="0.12"/>
  <path d="M0 600 Q240 540 480 600 T960 580 T1440 610 T1920 580" stroke="#F8F4EE" stroke-width="1" fill="none" opacity="0.08"/>
  <path d="M0 650 Q240 600 480 650 T960 630 T1440 660 T1920 630" stroke="#D97745" stroke-width="1" fill="none" opacity="0.06"/>
  <rect x="0" y="0" width="700" height="900" fill="url(#h1o)" opacity="0.5"/>
</svg>
